<svg width="110" height="170.99999999999997" xmlns="http://www.w3.org/2000/svg" version="1.1">

 <g>
  <title>Layer 1</title>
  <text transform="rotate(21 44.072 84.1957)" xml:space="preserve" text-anchor="start" font-family="Noto Sans JP" font-size="250" stroke-width="0" id="svg_2" y="168.45747" x="-11.40924" stroke="null" fill="#000000">?</text>
  <path stroke="null" id="svg_1" d="m15.63618,137.32535c-7.77143,0 -14.07171,6.51956 -14.07171,14.56168c0,8.04247 6.30029,14.56151 14.07171,14.56151c7.77227,0 14.07188,-6.51904 14.07188,-14.56151c0,-8.0416 -6.29961,-14.56099 -14.07205,-14.56099l0.00017,-0.0007zm6.4532,21.00213c-0.25205,0.42776 -0.79312,0.5634 -1.20649,0.30083c-3.30389,-2.08839 -7.46308,-2.56136 -12.36129,-1.40327c-0.47201,0.11129 -0.94251,-0.19475 -1.05005,-0.68338c-0.10805,-0.48862 0.18652,-0.97551 0.6597,-1.0868c5.3603,-1.26781 9.95823,-0.72163 13.66742,1.62411c0.41336,0.26257 0.54443,0.82075 0.2907,1.24851zm1.72235,-3.9655c-0.31759,0.5347 -0.99308,0.70337 -1.50895,0.37473c-3.78246,-2.40643 -9.54822,-3.1032 -14.02214,-1.69784c-0.58022,0.18136 -1.19304,-0.15702 -1.36915,-0.75641c-0.17476,-0.60043 0.15241,-1.23338 0.73162,-1.41597c5.11043,-1.60463 11.46365,-0.82736 15.80734,1.93485c0.51587,0.32865 0.67886,1.02767 0.36127,1.56081l0,-0.00017zm0.14787,-4.12878c-4.53525,-2.78759 -12.01783,-3.0439 -16.34791,-1.68393c-0.69533,0.21823 -1.43065,-0.18797 -1.64136,-0.90752c-0.21072,-0.71989 0.18148,-1.4803 0.87731,-1.69905c4.97063,-1.56151 13.23372,-1.25981 18.45523,1.94789c0.62677,0.38412 0.83177,1.21999 0.46041,1.86633c-0.36968,0.64721 -1.1796,0.86057 -1.80301,0.47628l-0.00067,0z" fill="#1ED760"/>
 </g>
</svg>